<svg width="75" height="71" viewBox="0 0 75 71" fill="none" xmlns="http://www.w3.org/2000/svg">
<path d="M52.5 15.8919C52.5 24.0972 45.9977 30.7297 38 30.7297C30.0023 30.7297 23.5 24.0972 23.5 15.8919C23.5 7.68662 30.0023 1.05405 38 1.05405C45.9977 1.05405 52.5 7.68662 52.5 15.8919Z" fill="white" stroke="black"/>
<path d="M41.4062 19.6892H35.5996V18.6462L37.8086 16.4255C38.4609 15.7575 38.8926 15.2849 39.1035 15.0075C39.3184 14.7263 39.4746 14.4626 39.5723 14.2165C39.6699 13.9704 39.7188 13.7068 39.7188 13.4255C39.7188 13.0388 39.6016 12.7341 39.3672 12.5115C39.1367 12.2888 38.8164 12.1775 38.4062 12.1775C38.0781 12.1775 37.7598 12.238 37.4512 12.3591C37.1465 12.4802 36.793 12.699 36.3906 13.0154L35.6465 12.1072C36.123 11.7048 36.5859 11.4197 37.0352 11.2517C37.4844 11.0837 37.9629 10.9997 38.4707 10.9997C39.2676 10.9997 39.9062 11.2087 40.3867 11.6267C40.8672 12.0408 41.1074 12.5993 41.1074 13.3025C41.1074 13.6892 41.0371 14.0564 40.8965 14.404C40.7598 14.7517 40.5469 15.1111 40.2578 15.4822C39.9727 15.8493 39.4961 16.3474 38.8281 16.9763L37.3398 18.4177V18.4763H41.4062V19.6892Z" fill="black"/>
<path d="M29.5 52.7027C29.5 60.908 22.9977 67.5405 15 67.5405C7.00231 67.5405 0.5 60.908 0.5 52.7027C0.5 44.4974 7.00231 37.8649 15 37.8649C22.9977 37.8649 29.5 44.4974 29.5 52.7027Z" fill="white" stroke="black"/>
<path d="M16.6426 57.5225H15.2656V51.9913C15.2656 51.3311 15.2812 50.8077 15.3125 50.421C15.2227 50.5147 15.1113 50.6182 14.9785 50.7315C14.8496 50.8448 14.4121 51.2042 13.666 51.8096L12.9746 50.9366L15.4941 48.9561H16.6426V57.5225Z" fill="black"/>
<path d="M74.5 54.7477C74.5 62.953 67.9977 69.5856 60 69.5856C52.0023 69.5856 45.5 62.953 45.5 54.7477C45.5 46.5425 52.0023 39.9099 60 39.9099C67.9977 39.9099 74.5 46.5425 74.5 54.7477Z" fill="white" stroke="black"/>
<path d="M63.084 52.9699C63.084 53.5129 62.9258 53.966 62.6094 54.3293C62.293 54.6887 61.8477 54.9308 61.2734 55.0558V55.1027C61.9609 55.1887 62.4766 55.4035 62.8203 55.7473C63.1641 56.0871 63.3359 56.5402 63.3359 57.1066C63.3359 57.9308 63.0449 58.5676 62.4629 59.0168C61.8809 59.4621 61.0527 59.6848 59.9785 59.6848C59.0293 59.6848 58.2285 59.5305 57.5762 59.2219V57.9973C57.9395 58.1769 58.3242 58.3156 58.7305 58.4133C59.1367 58.5109 59.5273 58.5598 59.9023 58.5598C60.5664 58.5598 61.0625 58.4367 61.3906 58.1906C61.7188 57.9445 61.8828 57.5637 61.8828 57.048C61.8828 56.591 61.7012 56.2551 61.3379 56.0402C60.9746 55.8254 60.4043 55.718 59.627 55.718H58.8828V54.5988H59.6387C61.0059 54.5988 61.6895 54.1262 61.6895 53.1808C61.6895 52.8137 61.5703 52.5305 61.332 52.3312C61.0938 52.132 60.7422 52.0324 60.2773 52.0324C59.9531 52.0324 59.6406 52.0793 59.3398 52.173C59.0391 52.2629 58.6836 52.4406 58.2734 52.7062L57.5996 51.7453C58.3848 51.1672 59.2969 50.8781 60.3359 50.8781C61.1992 50.8781 61.873 51.0637 62.3574 51.4348C62.8418 51.8058 63.084 52.3176 63.084 52.9699Z" fill="black"/>
<line y1="-0.5" x2="15.2437" y2="-0.5" transform="matrix(-0.521526 0.853235 -0.842625 -0.538502 30.95 28.1622)" stroke="black"/>
<line y1="-0.5" x2="15.2437" y2="-0.5" transform="matrix(-0.521447 -0.853284 0.842676 -0.538422 52.9488 41.1694)" stroke="black"/>
</svg>
