<svg width="75" height="68" viewBox="0 0 75 68" fill="none" xmlns="http://www.w3.org/2000/svg">
<circle cx="38" cy="15" r="14.5" fill="white" stroke="black"/>
<path d="M39.6426 19H38.2656V13.4688C38.2656 12.8086 38.2812 12.2852 38.3125 11.8984C38.2227 11.9922 38.1113 12.0957 37.9785 12.209C37.8496 12.3223 37.4121 12.6816 36.666 13.2871L35.9746 12.4141L38.4941 10.4336H39.6426V19Z" fill="black"/>
<circle cx="15" cy="51" r="14.5" fill="white" stroke="black"/>
<path d="M18.4062 56H12.5996V54.957L14.8086 52.7363C15.4609 52.0684 15.8926 51.5957 16.1035 51.3184C16.3184 51.0371 16.4746 50.7734 16.5723 50.5273C16.6699 50.2812 16.7188 50.0176 16.7188 49.7363C16.7188 49.3496 16.6016 49.0449 16.3672 48.8223C16.1367 48.5996 15.8164 48.4883 15.4062 48.4883C15.0781 48.4883 14.7598 48.5488 14.4512 48.6699C14.1465 48.791 13.793 49.0098 13.3906 49.3262L12.6465 48.418C13.123 48.0156 13.5859 47.7305 14.0352 47.5625C14.4844 47.3945 14.9629 47.3105 15.4707 47.3105C16.2676 47.3105 16.9062 47.5195 17.3867 47.9375C17.8672 48.3516 18.1074 48.9102 18.1074 49.6133C18.1074 50 18.0371 50.3672 17.8965 50.7148C17.7598 51.0625 17.5469 51.4219 17.2578 51.793C16.9727 52.1602 16.4961 52.6582 15.8281 53.2871L14.3398 54.7285V54.7871H18.4062V56Z" fill="black"/>
<circle cx="60" cy="53" r="14.5" fill="white" stroke="black"/>
<path d="M63.084 51.4023C63.084 51.9453 62.9258 52.3984 62.6094 52.7617C62.293 53.1211 61.8477 53.3633 61.2734 53.4883V53.5352C61.9609 53.6211 62.4766 53.8359 62.8203 54.1797C63.1641 54.5195 63.3359 54.9727 63.3359 55.5391C63.3359 56.3633 63.0449 57 62.4629 57.4492C61.8809 57.8945 61.0527 58.1172 59.9785 58.1172C59.0293 58.1172 58.2285 57.9629 57.5762 57.6543V56.4297C57.9395 56.6094 58.3242 56.748 58.7305 56.8457C59.1367 56.9434 59.5273 56.9922 59.9023 56.9922C60.5664 56.9922 61.0625 56.8691 61.3906 56.623C61.7188 56.377 61.8828 55.9961 61.8828 55.4805C61.8828 55.0234 61.7012 54.6875 61.3379 54.4727C60.9746 54.2578 60.4043 54.1504 59.627 54.1504H58.8828V53.0312H59.6387C61.0059 53.0312 61.6895 52.5586 61.6895 51.6133C61.6895 51.2461 61.5703 50.9629 61.332 50.7637C61.0938 50.5645 60.7422 50.4648 60.2773 50.4648C59.9531 50.4648 59.6406 50.5117 59.3398 50.6055C59.0391 50.6953 58.6836 50.873 58.2734 51.1387L57.5996 50.1777C58.3848 49.5996 59.2969 49.3105 60.3359 49.3105C61.1992 49.3105 61.873 49.4961 62.3574 49.8672C62.8418 50.2383 63.084 50.75 63.084 51.4023Z" fill="black"/>
<line x1="31.374" y1="27.265" x2="23.424" y2="39.985" stroke="black"/>
<line x1="52.5248" y1="39.9857" x2="44.576" y2="27.2649" stroke="black"/>
</svg>
